<?xml version="1.0" encoding="utf-8"?>
<!-- Generator: Adobe Illustrator 17.0.0, SVG Export Plug-In . SVG Version: 6.00 Build 0)  -->
<!DOCTYPE svg PUBLIC "-//W3C//DTD SVG 1.1//EN" "http://www.w3.org/Graphics/SVG/1.1/DTD/svg11.dtd">
<svg version="1.1" id="Layer_1" xmlns="http://www.w3.org/2000/svg" xmlns:xlink="http://www.w3.org/1999/xlink" x="0px" y="0px"
	 width="29.749px" height="28.474px" viewBox="0 0 29.749 28.474" enable-background="new 0 0 29.749 28.474" xml:space="preserve">
<g>
	<path fill="#959595" d="M29.658,10.741c-0.218-0.673-0.799-1.162-1.498-1.264L20.13,8.31l-3.59-7.275
		C16.227,0.401,15.582,0,14.875,0c-0.707,0-1.353,0.401-1.665,1.035L9.619,8.31l-8.03,1.167c-0.699,0.102-1.28,0.591-1.498,1.264
		c-0.219,0.672-0.036,1.409,0.469,1.903l5.81,5.663l-1.371,7.996c-0.12,0.697,0.166,1.4,0.738,1.816
		c0.324,0.235,0.706,0.355,1.091,0.355c0.296,0,0.593-0.07,0.864-0.213l7.182-3.775l7.181,3.775
		c0.271,0.143,0.568,0.213,0.864,0.213c0.385,0,0.767-0.12,1.091-0.355c0.572-0.415,0.858-1.119,0.738-1.816l-1.371-7.996
		l5.81-5.663C29.695,12.151,29.877,11.414,29.658,10.741z M21.384,17.659l1.537,8.959l-8.046-4.229l-8.047,4.229l1.537-8.959
		l-6.509-6.344l8.995-1.307l4.023-8.151l4.022,8.151l8.995,1.307L21.384,17.659z"/>
	<path fill="#959595" d="M18.223,10.939l-3.348-6.783l-3.348,6.783L4.04,12.027l5.418,5.28l-0.511,2.979
		c-0.015,0.054-0.025,0.11-0.025,0.169c0,0.344,0.278,0.622,0.621,0.622c0.308,0,0.561-0.224,0.611-0.518l0.003,0.001l0.631-3.685
		l-4.086-3.983l5.648-0.82l2.527-5.119l2.526,5.119l2.018,0.293c0.011,0.003,0.024,0.003,0.035,0.005l0.038,0.006v-0.002
		c0.02,0.002,0.038,0.006,0.059,0.006c0.344,0,0.622-0.278,0.622-0.621c0-0.32-0.242-0.581-0.554-0.615L18.223,10.939z"/>
	<path fill="#959595" d="M22.613,12.828l0.436,0.063l-4.087,3.984l0.965,5.626l-5.051-2.656l-6.111,3.212
		c-0.226,0.093-0.385,0.315-0.385,0.574c0,0.344,0.278,0.622,0.622,0.622c0.104,0,0.202-0.029,0.288-0.074l0,0l5.586-2.937
		l6.695,3.519l-1.278-7.456l5.417-5.28l-2.874-0.418c-0.044-0.01-0.09-0.016-0.137-0.016c-0.343,0-0.622,0.278-0.622,0.622
		C22.076,12.528,22.31,12.785,22.613,12.828z"/>
</g>
</svg>
