<?xml version="1.0" encoding="utf-8"?>
<!-- Generator: Adobe Illustrator 17.0.0, SVG Export Plug-In . SVG Version: 6.00 Build 0)  -->
<!DOCTYPE svg PUBLIC "-//W3C//DTD SVG 1.1//EN" "http://www.w3.org/Graphics/SVG/1.1/DTD/svg11.dtd">
<svg version="1.1" id="Layer_1" xmlns="http://www.w3.org/2000/svg" xmlns:xlink="http://www.w3.org/1999/xlink" x="0px" y="0px"
	 width="148.087px" height="120.274px" viewBox="70.753 -99.78 148.087 120.274"
	 enable-background="new 70.753 -99.78 148.087 120.274" xml:space="preserve">
<g>
	<g>
		<path fill="#959595" d="M164.865,8.875h-18.032V0.776c0-2.461-1.995-4.456-4.458-4.456c-2.461,0-4.456,1.995-4.456,4.456v8.099
			h-18.03c-2.463,0-4.456,1.995-4.456,4.458c0,2.461,1.993,4.456,4.456,4.456h44.977c2.461,0,4.456-1.995,4.456-4.456
			C169.32,10.87,167.326,8.875,164.865,8.875z"/>
		<path fill="#959595" d="M204.563-99.78h-124.9c-4.92,0-8.91,3.99-8.91,8.91v72.41c0,4.92,3.99,8.91,8.91,8.91h95.17v-8.91h-95.17
			v-6.43h85.75c1.64,0,2.97-1.33,2.97-2.97c0-1.64-1.33-2.97-2.97-2.97h-85.75v-60.04h124.9v44.36h8.92v-44.36
			C213.483-95.79,209.493-99.78,204.563-99.78z"/>
	</g>
	<g>
		<path fill="#959595" d="M214.833-43.506h-32.649c-2.213,0-4.006,1.794-4.006,4.007v55.986c0,2.213,1.793,4.007,4.006,4.007h32.649
			c2.213,0,4.007-1.794,4.007-4.007v-55.986C218.84-41.712,217.046-43.506,214.833-43.506z M214.833,16.487h-32.649v-55.986h32.649
			V16.487z"/>
		<circle fill="#959595" cx="198.508" cy="10.77" r="2.879"/>
		<path fill="#959595" d="M186.645-1.569c0.738,0,1.336-0.599,1.336-1.336v-25.576h21.057v4.357c0,0.738,0.598,1.336,1.336,1.336
			c0.737,0,1.335-0.598,1.335-1.336v-5.693c0-0.738-0.598-1.336-1.335-1.336h-23.729c-0.737,0-1.335,0.598-1.335,1.336v26.912
			C185.31-2.168,185.908-1.569,186.645-1.569z"/>
		<path fill="#959595" d="M186.645,4.45h23.729c0.737,0,1.335-0.598,1.335-1.336v-20.799c0-0.738-0.598-1.336-1.335-1.336
			c-0.738,0-1.336,0.598-1.336,1.336V1.779h-22.393c-0.737,0-1.335,0.598-1.335,1.335C185.31,3.853,185.908,4.45,186.645,4.45z"/>
		<path fill="#959595" d="M194.475-33.986h8.067c0.737,0,1.335-0.599,1.335-1.336s-0.598-1.335-1.335-1.335h-8.067
			c-0.737,0-1.335,0.598-1.335,1.335S193.738-33.986,194.475-33.986z"/>
	</g>
</g>
</svg>
